<?xml version="1.0" encoding="utf-8"?>
<!-- Generator: Adobe Illustrator 19.0.0, SVG Export Plug-In . SVG Version: 6.00 Build 0)  -->
<svg version="1.1" id="Layer_1" xmlns="http://www.w3.org/2000/svg" xmlns:xlink="http://www.w3.org/1999/xlink" x="0px" y="0px"
	 viewBox="-138 372.9 318 96" style="enable-background:new -138 372.9 318 96;" xml:space="preserve">
<style type="text/css">
	.st0{fill:#255269;}
	.st1{fill:url(#SVGID_1_);}
	.st2{fill:url(#SVGID_2_);}
	.st3{fill:url(#SVGID_3_);}
	.st4{fill:url(#SVGID_4_);}
	.st5{fill:url(#SVGID_5_);}
	.st6{fill:url(#SVGID_6_);}
	.st7{fill:#579BBB;}
	.st8{fill:#60A9B5;}
	.st9{fill:url(#SVGID_7_);}
	.st10{fill:url(#SVGID_8_);}
	.st11{fill:url(#SVGID_9_);}
	.st12{fill:#2E607F;}
	.st13{fill:#447AA1;}
</style>
<g>
	<g>
		<path class="st0" d="M11.1,414.8c0,1.2,0.1,2.3,0.4,3.1c0.3,0.9,0.6,1.6,1.2,2.2c0.5,0.6,1.1,1,1.9,1.3c0.7,0.3,1.6,0.4,2.5,0.4
			c0.9,0,1.8-0.1,2.6-0.4c0.8-0.3,1.6-0.6,2.4-1l1.4,3.1c-0.5,0.3-1,0.6-1.6,0.8c-0.6,0.3-1.2,0.5-1.8,0.7c-0.6,0.2-1.3,0.3-1.9,0.4
			c-0.6,0.1-1.3,0.2-1.9,0.2c-1.4,0-2.7-0.2-3.8-0.5c-1.2-0.4-2.2-1-3.1-1.8c-0.9-0.8-1.5-1.9-2-3.2c-0.5-1.3-0.7-3-0.7-5
			c0-2,0.2-3.8,0.7-5.2c0.5-1.4,1.2-2.5,2-3.4c0.9-0.9,1.9-1.5,3.1-1.9c1.2-0.4,2.5-0.6,3.8-0.6c0.7,0,1.3,0.1,2,0.2
			c0.7,0.1,1.3,0.3,1.9,0.4c0.6,0.2,1.2,0.4,1.8,0.7c0.6,0.3,1.1,0.5,1.5,0.8l-1.4,3.1c-0.8-0.4-1.6-0.8-2.4-1
			c-0.8-0.3-1.7-0.4-2.6-0.4c-1.9,0-3.4,0.6-4.4,1.7S11.1,412.3,11.1,414.8z"/>
		<path class="st0" d="M25.6,417.7c0-1.4,0.2-2.6,0.6-3.7c0.4-1,1-1.9,1.7-2.6c0.7-0.7,1.6-1.2,2.6-1.5c1-0.3,2.2-0.5,3.5-0.5
			c0.6,0,1.2,0,1.8,0.1c0.6,0.1,1.2,0.2,1.7,0.3c0.5,0.1,1.1,0.3,1.6,0.5c0.5,0.2,0.9,0.4,1.3,0.6v14.2h-3.8l-0.5-1.6
			c-0.2,0.2-0.5,0.4-0.8,0.6c-0.3,0.2-0.6,0.4-1,0.6s-0.8,0.3-1.2,0.5c-0.4,0.1-0.9,0.2-1.5,0.2c-0.9,0-1.7-0.2-2.5-0.5
			c-0.7-0.3-1.4-0.8-1.9-1.5c-0.5-0.7-0.9-1.5-1.2-2.4C25.7,420.1,25.6,419,25.6,417.7z M29.8,417.5c0,0.8,0.1,1.5,0.2,2
			c0.2,0.6,0.4,1,0.7,1.4c0.3,0.4,0.6,0.6,1,0.8c0.4,0.2,0.8,0.2,1.3,0.2c0.6,0,1.1-0.1,1.6-0.3c0.5-0.2,0.9-0.5,1.3-0.7v-7.6
			c-0.2-0.1-0.5-0.2-0.9-0.3c-0.4-0.1-0.9-0.2-1.5-0.2c-0.6,0-1.1,0.1-1.5,0.3s-0.8,0.5-1.2,0.9c-0.3,0.4-0.6,0.9-0.8,1.4
			S29.8,416.7,29.8,417.5z"/>
		<path class="st0" d="M44.2,425.2v-21.8h4.4v21.8H44.2z"/>
		<path class="st0" d="M62.8,425.2l-0.5-1.6c-0.2,0.2-0.5,0.4-0.8,0.7c-0.3,0.2-0.6,0.4-1,0.6s-0.8,0.3-1.2,0.4
			c-0.5,0.1-0.9,0.2-1.5,0.2c-0.9,0-1.7-0.2-2.4-0.5c-0.7-0.3-1.3-0.8-1.9-1.5c-0.5-0.7-0.9-1.5-1.2-2.4c-0.3-1-0.4-2.1-0.4-3.4
			c0-1.4,0.2-2.7,0.7-3.7s1-1.9,1.7-2.6s1.5-1.2,2.4-1.5c0.9-0.3,1.7-0.5,2.5-0.5c0.4,0,0.8,0,1.1,0s0.6,0.1,0.8,0.1
			c0.2,0.1,0.4,0.1,0.6,0.2s0.4,0.1,0.5,0.2v-6.6h4.4v21.8H62.8z M56.1,417.5c0,0.8,0.1,1.5,0.2,2c0.2,0.6,0.4,1,0.7,1.4
			c0.3,0.4,0.6,0.6,1,0.8c0.4,0.2,0.8,0.2,1.3,0.2c0.5,0,1-0.1,1.5-0.2s1-0.4,1.4-0.7v-7.6c-0.2-0.1-0.6-0.2-1-0.3s-0.9-0.1-1.3-0.1
			c-1.2,0-2.1,0.4-2.8,1.2C56.4,414.9,56.1,416,56.1,417.5z"/>
		<path class="st0" d="M74.3,419.5c0.3,0.9,0.7,1.5,1.4,1.9c0.7,0.4,1.6,0.7,2.9,0.7c0.4,0,0.7,0,1.1-0.1c0.3-0.1,0.7-0.2,1-0.3
			c0.3-0.1,0.6-0.2,0.9-0.4c0.3-0.1,0.6-0.3,0.9-0.4l1.2,3c-0.9,0.5-1.8,0.9-2.7,1.2c-1,0.3-2,0.4-3.1,0.4c-2.6,0-4.5-0.7-5.9-2
			c-1.4-1.3-2.1-3.4-2.1-6.1c0-1.3,0.2-2.5,0.6-3.5c0.4-1,0.9-1.8,1.6-2.5c0.7-0.7,1.5-1.2,2.5-1.5c1-0.3,2-0.5,3.2-0.5
			c1,0,1.9,0.1,2.7,0.4c0.8,0.3,1.5,0.7,2.1,1.1s1,1,1.3,1.7c0.3,0.6,0.5,1.3,0.5,2c0,0.6-0.1,1.1-0.2,1.7c-0.2,0.6-0.5,1.1-0.9,1.6
			c-0.4,0.5-1,0.8-1.7,1.1s-1.6,0.4-2.7,0.4H74.3z M77.4,412.9c-0.5,0-0.9,0.1-1.3,0.3c-0.4,0.2-0.7,0.4-0.9,0.7
			c-0.3,0.3-0.5,0.6-0.6,1c-0.2,0.4-0.3,0.8-0.4,1.2h3.7c0.3,0,0.6,0,0.8,0c0.3,0,0.5-0.1,0.6-0.2c0.2-0.1,0.3-0.2,0.4-0.4
			c0.1-0.2,0.1-0.4,0.1-0.6c0-0.3-0.1-0.6-0.2-0.9c-0.1-0.2-0.3-0.4-0.6-0.6c-0.2-0.2-0.5-0.3-0.8-0.3S77.7,412.9,77.4,412.9z"/>
		<path class="st0" d="M87.5,411.8c1.7-1.2,3.5-1.9,5.3-2.2c1.8-0.3,3.6-0.2,5.3,0.4l-0.6,3.3c-0.4-0.1-0.9-0.1-1.4-0.2
			c-0.5,0-0.9,0-1.4,0c-0.5,0.1-0.9,0.2-1.4,0.3c-0.5,0.2-0.9,0.4-1.4,0.7v11h-4.4V411.8z"/>
		<path class="st0" d="M99.1,417.7c0-1.4,0.2-2.6,0.6-3.7c0.4-1,1-1.9,1.7-2.6c0.7-0.7,1.6-1.2,2.6-1.5c1-0.3,2.2-0.5,3.5-0.5
			c0.6,0,1.2,0,1.8,0.1c0.6,0.1,1.2,0.2,1.7,0.3c0.5,0.1,1.1,0.3,1.6,0.5c0.5,0.2,0.9,0.4,1.3,0.6v14.2H110l-0.5-1.6
			c-0.2,0.2-0.5,0.4-0.8,0.6c-0.3,0.2-0.6,0.4-1,0.6s-0.8,0.3-1.2,0.5c-0.4,0.1-0.9,0.2-1.5,0.2c-0.9,0-1.7-0.2-2.5-0.5
			c-0.7-0.3-1.4-0.8-1.9-1.5c-0.5-0.7-0.9-1.5-1.2-2.4C99.3,420.1,99.1,419,99.1,417.7z M103.4,417.5c0,0.8,0.1,1.5,0.2,2
			c0.2,0.6,0.4,1,0.7,1.4c0.3,0.4,0.6,0.6,1,0.8c0.4,0.2,0.8,0.2,1.3,0.2c0.6,0,1.1-0.1,1.6-0.3c0.5-0.2,0.9-0.5,1.3-0.7v-7.6
			c-0.2-0.1-0.5-0.2-0.9-0.3c-0.4-0.1-0.9-0.2-1.5-0.2c-0.6,0-1.1,0.1-1.5,0.3s-0.8,0.5-1.2,0.9c-0.3,0.4-0.6,0.9-0.8,1.4
			S103.4,416.7,103.4,417.5z"/>
		<path class="st0" d="M117.8,420.8c0.9,0.4,1.7,0.7,2.5,0.9c0.8,0.2,1.5,0.3,2.3,0.3c0.3,0,0.6,0,0.9-0.1c0.3-0.1,0.5-0.2,0.7-0.3
			s0.4-0.3,0.5-0.5c0.1-0.2,0.2-0.4,0.2-0.6c0-0.2-0.1-0.3-0.2-0.5c-0.1-0.1-0.3-0.3-0.6-0.4c-0.3-0.1-0.6-0.3-1-0.4
			s-0.9-0.3-1.5-0.5c-0.6-0.2-1.2-0.4-1.8-0.7c-0.5-0.2-1-0.5-1.4-0.9s-0.7-0.8-1-1.3c-0.2-0.5-0.4-1.1-0.4-1.8
			c0-0.8,0.2-1.5,0.5-2.1c0.3-0.6,0.8-1.1,1.3-1.4c0.6-0.4,1.2-0.6,1.9-0.8c0.7-0.2,1.5-0.3,2.3-0.3c1.2,0,2.3,0.1,3.2,0.4
			c0.9,0.2,1.7,0.6,2.5,0.9l-1.1,3c-0.7-0.3-1.4-0.5-2-0.6c-0.6-0.1-1.2-0.2-1.7-0.2c-0.4,0-0.7,0-1.1,0.1c-0.3,0-0.6,0.1-0.8,0.2
			c-0.2,0.1-0.4,0.2-0.5,0.4c-0.1,0.2-0.2,0.4-0.2,0.6c0,0.2,0.1,0.4,0.3,0.6c0.2,0.1,0.4,0.3,0.7,0.4c0.3,0.1,0.6,0.2,1,0.3
			c0.4,0.1,0.8,0.2,1.1,0.3c0.8,0.3,1.5,0.5,2.1,0.9s1,0.7,1.4,1.1c0.4,0.4,0.6,0.8,0.8,1.3c0.2,0.5,0.3,1,0.3,1.6
			c0,0.8-0.2,1.5-0.5,2c-0.3,0.6-0.8,1.1-1.3,1.5c-0.6,0.4-1.2,0.7-1.9,0.9c-0.7,0.2-1.5,0.3-2.3,0.3c-0.8,0-1.5,0-2.2-0.2
			c-0.7-0.1-1.3-0.2-1.8-0.4s-1-0.3-1.4-0.5c-0.4-0.2-0.7-0.3-1-0.5L117.8,420.8z"/>
		<path class="st0" d="M9.1,440.5c0,5.8,2.2,8.6,6.7,8.6c0.9,0,1.7-0.1,2.5-0.4c0.8-0.3,1.8-0.7,2.8-1.2l0.9,1.6
			c-1.1,0.6-2.1,1.1-3.2,1.5c-1.1,0.3-2.1,0.5-3.2,0.5c-1.4,0-2.7-0.2-3.8-0.6c-1.1-0.4-2-1.1-2.8-1.9c-0.8-0.9-1.3-1.9-1.7-3.2
			c-0.4-1.3-0.6-2.8-0.6-4.6c0-1.9,0.2-3.5,0.6-4.9c0.4-1.4,1-2.5,1.7-3.4c0.8-0.9,1.7-1.6,2.8-2c1.1-0.4,2.4-0.7,3.8-0.7
			c1.1,0,2.1,0.2,3.2,0.5c1.1,0.4,2.1,0.8,3.1,1.5l-0.9,1.6c-1-0.5-1.9-0.9-2.7-1.2c-0.9-0.3-1.7-0.4-2.6-0.4c-2.3,0-4,0.7-5.1,2.2
			C9.6,435.5,9.1,437.7,9.1,440.5z"/>
		<path class="st0" d="M25.5,435.8h2.2v9.1c0,0.8,0.1,1.5,0.3,2.1c0.2,0.6,0.5,1,0.8,1.3c0.3,0.3,0.7,0.6,1.2,0.7
			c0.5,0.1,1,0.2,1.5,0.2c1.6,0,3-0.5,4.1-1.4v-12.1h2.2v15.1h-1.9l-0.3-1.4c-0.2,0.2-0.5,0.4-0.8,0.6c-0.3,0.2-0.6,0.4-1,0.5
			c-0.4,0.2-0.8,0.3-1.2,0.4c-0.4,0.1-0.9,0.1-1.4,0.1c-1,0-1.8-0.1-2.6-0.4s-1.3-0.7-1.8-1.2c-0.5-0.5-0.8-1.1-1-1.9
			s-0.3-1.5-0.3-2.5V435.8z"/>
		<path class="st0" d="M43.8,444.3c0.1,0.8,0.2,1.5,0.4,2.1c0.2,0.6,0.5,1.1,1,1.5c0.4,0.4,0.9,0.7,1.6,1c0.6,0.2,1.4,0.3,2.2,0.3
			c0.7,0,1.4-0.1,2-0.3c0.7-0.2,1.2-0.5,1.8-0.8l0.8,1.6c-0.4,0.2-0.8,0.4-1.2,0.6c-0.4,0.2-0.8,0.3-1.2,0.4
			c-0.4,0.1-0.8,0.2-1.2,0.3c-0.4,0.1-0.9,0.1-1.4,0.1c-2.3,0-4-0.7-5.2-2.1c-1.2-1.4-1.8-3.4-1.8-6c0-1.2,0.2-2.3,0.5-3.2
			c0.3-0.9,0.8-1.7,1.4-2.4c0.6-0.7,1.3-1.1,2.1-1.5c0.8-0.3,1.8-0.5,2.8-0.5c0.8,0,1.5,0.1,2.2,0.4c0.7,0.2,1.3,0.6,1.9,1
			c0.5,0.4,1,0.9,1.3,1.5c0.3,0.6,0.5,1.3,0.5,2c0,0.6-0.1,1.1-0.2,1.6c-0.2,0.5-0.4,0.9-0.8,1.3c-0.4,0.4-0.9,0.6-1.5,0.8
			s-1.4,0.3-2.3,0.3H43.8z M48.3,437.4c-0.7,0-1.3,0.1-1.8,0.4c-0.5,0.2-1,0.6-1.4,1s-0.7,1-0.9,1.6s-0.4,1.3-0.4,2h5.1
			c0.5,0,0.9,0,1.3-0.1c0.4,0,0.7-0.1,1-0.3c0.3-0.1,0.5-0.3,0.6-0.6c0.1-0.2,0.2-0.6,0.2-1c0-0.6-0.1-1-0.4-1.4
			c-0.2-0.4-0.5-0.7-0.9-1c-0.4-0.3-0.8-0.4-1.2-0.6C49.1,437.5,48.7,437.4,48.3,437.4z"/>
		<path class="st0" d="M57.9,437.6c0.8-0.5,1.5-1,2.3-1.3c0.7-0.3,1.5-0.5,2.2-0.7s1.5-0.2,2.2-0.1c0.7,0,1.4,0.2,2.2,0.4l-0.4,1.8
			c-0.5-0.1-1-0.2-1.5-0.2c-0.5,0-1,0-1.5,0c-0.5,0.1-1,0.2-1.6,0.4s-1.1,0.5-1.6,0.8v12.1h-2.2V437.6z"/>
		<path class="st0" d="M69.3,438c0.3-0.2,0.7-0.5,1.2-0.8c0.5-0.3,1.1-0.6,1.7-0.8c0.6-0.3,1.3-0.5,2.1-0.7c0.8-0.2,1.6-0.3,2.4-0.3
			c0.9,0,1.7,0.2,2.3,0.5c0.6,0.3,1.1,0.7,1.5,1.2c0.4,0.5,0.6,1.1,0.8,1.8c0.2,0.7,0.2,1.4,0.2,2.1v9.9h-2.2v-9.8
			c0-0.4,0-0.8-0.1-1.3c-0.1-0.4-0.2-0.8-0.5-1.2s-0.5-0.6-0.9-0.9c-0.4-0.2-0.9-0.3-1.5-0.3c-0.4,0-0.9,0.1-1.3,0.2
			s-0.9,0.3-1.3,0.4c-0.4,0.2-0.8,0.4-1.2,0.5c-0.4,0.2-0.7,0.4-0.9,0.5v11.8h-2.2V438z"/>
		<path class="st0" d="M85.1,443.3c0-1.3,0.2-2.4,0.6-3.3c0.4-1,0.9-1.8,1.5-2.4c0.7-0.7,1.4-1.2,2.3-1.5c0.9-0.3,1.8-0.5,2.9-0.5
			c0.6,0,1.1,0,1.6,0.1s1,0.2,1.5,0.3c0.5,0.1,0.9,0.3,1.3,0.4c0.4,0.2,0.8,0.3,1.1,0.5v14.1H96l-0.3-1.4c-0.3,0.2-0.7,0.5-1,0.7
			c-0.3,0.2-0.7,0.4-1,0.5c-0.4,0.1-0.8,0.3-1.2,0.3c-0.4,0.1-0.9,0.1-1.5,0.1c-0.8,0-1.6-0.2-2.4-0.5s-1.4-0.8-1.9-1.4
			c-0.5-0.6-1-1.5-1.3-2.5S85.1,444.7,85.1,443.3z M87.3,443.3c0,1,0.1,1.9,0.3,2.6s0.5,1.4,0.9,1.9c0.4,0.5,0.8,0.9,1.4,1.1
			s1.1,0.4,1.7,0.4c0.4,0,0.8,0,1.2-0.1c0.4-0.1,0.8-0.2,1.1-0.3c0.4-0.1,0.7-0.3,1-0.5c0.3-0.2,0.6-0.4,0.8-0.6v-9.7
			c-0.1,0-0.2-0.1-0.4-0.2s-0.4-0.1-0.7-0.2c-0.3-0.1-0.6-0.1-0.9-0.2c-0.3,0-0.7-0.1-1.1-0.1c-0.8,0-1.5,0.1-2.1,0.4
			c-0.6,0.3-1.2,0.6-1.7,1.1c-0.5,0.5-0.8,1.1-1.1,1.8C87.5,441.5,87.3,442.4,87.3,443.3z"/>
		<path class="st0" d="M106.4,450.9c-1.3-2.3-2.4-4.7-3.4-7.3s-1.6-5.2-2.1-7.9l2.4-0.2c0.1,0.6,0.2,1.3,0.4,2
			c0.2,0.7,0.4,1.5,0.6,2.3s0.5,1.6,0.8,2.5c0.3,0.8,0.6,1.6,0.9,2.4c0.3,0.8,0.6,1.5,0.9,2.2c0.3,0.7,0.6,1.3,0.9,1.8h0.1
			c0.3-0.5,0.6-1.1,0.9-1.8c0.3-0.7,0.6-1.4,0.9-2.1c0.3-0.7,0.6-1.5,0.8-2.3c0.3-0.8,0.5-1.6,0.8-2.4s0.4-1.6,0.6-2.4
			c0.2-0.8,0.3-1.5,0.4-2.2l2.4,0.2c-0.2,1.3-0.5,2.6-0.8,3.9c-0.4,1.3-0.8,2.6-1.2,3.9c-0.5,1.3-1,2.6-1.6,3.8
			c-0.6,1.2-1.2,2.4-1.8,3.6H106.4z"/>
		<path class="st0" d="M116.7,443.3c0-1.3,0.2-2.4,0.6-3.3c0.4-1,0.9-1.8,1.5-2.4c0.7-0.7,1.4-1.2,2.3-1.5c0.9-0.3,1.8-0.5,2.9-0.5
			c0.6,0,1.1,0,1.6,0.1s1,0.2,1.5,0.3c0.5,0.1,0.9,0.3,1.3,0.4c0.4,0.2,0.8,0.3,1.1,0.5v14.1h-1.9l-0.3-1.4c-0.3,0.2-0.7,0.5-1,0.7
			c-0.3,0.2-0.7,0.4-1,0.5c-0.4,0.1-0.8,0.3-1.2,0.3c-0.4,0.1-0.9,0.1-1.5,0.1c-0.8,0-1.6-0.2-2.4-0.5s-1.4-0.8-1.9-1.4
			c-0.5-0.6-1-1.5-1.3-2.5S116.7,444.7,116.7,443.3z M118.9,443.3c0,1,0.1,1.9,0.3,2.6s0.5,1.4,0.9,1.9c0.4,0.5,0.8,0.9,1.4,1.1
			s1.1,0.4,1.7,0.4c0.4,0,0.8,0,1.2-0.1c0.4-0.1,0.8-0.2,1.1-0.3c0.4-0.1,0.7-0.3,1-0.5c0.3-0.2,0.6-0.4,0.8-0.6v-9.7
			c-0.1,0-0.2-0.1-0.4-0.2s-0.4-0.1-0.7-0.2c-0.3-0.1-0.6-0.1-0.9-0.2c-0.3,0-0.7-0.1-1.1-0.1c-0.8,0-1.5,0.1-2.1,0.4
			c-0.6,0.3-1.2,0.6-1.7,1.1c-0.5,0.5-0.8,1.1-1.1,1.8C119,441.5,118.9,442.4,118.9,443.3z"/>
		<path class="st0" d="M133.3,443.2c0-1.3,0.2-2.5,0.5-3.5c0.3-1,0.8-1.8,1.4-2.4c0.6-0.6,1.3-1.1,2.1-1.4c0.8-0.3,1.6-0.4,2.6-0.4
			c0.8,0,1.5,0.1,2.3,0.3s1.6,0.5,2.4,1l-0.8,1.6c-0.6-0.3-1.2-0.6-1.9-0.7s-1.3-0.2-1.8-0.2c-1.5,0-2.6,0.5-3.4,1.5
			c-0.8,1-1.2,2.5-1.2,4.4c0,0.9,0.1,1.8,0.3,2.5c0.2,0.7,0.5,1.4,0.8,1.9s0.9,0.9,1.4,1.2c0.6,0.3,1.3,0.4,2.1,0.4
			c0.7,0,1.3-0.1,1.9-0.3c0.6-0.2,1.2-0.4,1.7-0.7l0.8,1.6c-0.8,0.5-1.6,0.8-2.4,1c-0.8,0.2-1.6,0.3-2.3,0.3c-1.2,0-2.1-0.2-3-0.6
			c-0.8-0.4-1.5-0.9-2-1.6c-0.5-0.7-0.9-1.5-1.2-2.5C133.4,445.5,133.3,444.4,133.3,443.2z"/>
		<path class="st0" d="M146.9,443.3c0-1.3,0.2-2.4,0.6-3.3c0.4-1,0.9-1.8,1.5-2.4c0.7-0.7,1.4-1.2,2.3-1.5c0.9-0.3,1.8-0.5,2.9-0.5
			c0.6,0,1.1,0,1.6,0.1s1,0.2,1.5,0.3c0.5,0.1,0.9,0.3,1.3,0.4c0.4,0.2,0.8,0.3,1.1,0.5v14.1h-1.9l-0.3-1.4c-0.3,0.2-0.7,0.5-1,0.7
			c-0.3,0.2-0.7,0.4-1,0.5c-0.4,0.1-0.8,0.3-1.2,0.3c-0.4,0.1-0.9,0.1-1.5,0.1c-0.8,0-1.6-0.2-2.4-0.5s-1.4-0.8-1.9-1.4
			c-0.5-0.6-1-1.5-1.3-2.5S146.9,444.7,146.9,443.3z M149.1,443.3c0,1,0.1,1.9,0.3,2.6s0.5,1.4,0.9,1.9c0.4,0.5,0.8,0.9,1.4,1.1
			s1.1,0.4,1.7,0.4c0.4,0,0.8,0,1.2-0.1c0.4-0.1,0.8-0.2,1.1-0.3c0.4-0.1,0.7-0.3,1-0.5c0.3-0.2,0.6-0.4,0.8-0.6v-9.7
			c-0.1,0-0.2-0.1-0.4-0.2s-0.4-0.1-0.7-0.2c-0.3-0.1-0.6-0.1-0.9-0.2c-0.3,0-0.7-0.1-1.1-0.1c-0.8,0-1.5,0.1-2.1,0.4
			c-0.6,0.3-1.2,0.6-1.7,1.1c-0.5,0.5-0.8,1.1-1.1,1.8C149.2,441.5,149.1,442.4,149.1,443.3z"/>
	</g>
	<g>
		<linearGradient id="SVGID_1_" gradientUnits="userSpaceOnUse" x1="-35.8638" y1="455.89" x2="-35.8638" y2="411.6534">
			<stop  offset="2.441406e-002" style="stop-color:#F0E334"/>
			<stop  offset="0.3716" style="stop-color:#DE9014"/>
			<stop  offset="0.5085" style="stop-color:#DC8813"/>
			<stop  offset="0.7033" style="stop-color:#DB8213"/>
			<stop  offset="1" style="stop-color:#C7380C"/>
		</linearGradient>
		<path class="st1" d="M-63.9,455.9c0,0,4.4-8.9,25.6-11.6c19.2-2.4,35.7-20.8,35.7-20.8l0,0c0,0-3.3-1.9-8.2,1.5
			c-6.7,4.6-11,8.2-11,8.2l14.6-12.5c0,0-1.5-6.1-12.5,3.1s-20.1,16.8-30.3,9c0,0-7-5.8,4.2-13.1c0,0,4.5-2.8,3.5-8.1
			c0,0-5.9,1-15.9,9.5C-68.7,430-73.7,445.5-63.9,455.9z"/>
		<linearGradient id="SVGID_2_" gradientUnits="userSpaceOnUse" x1="-101.6024" y1="460.1169" x2="-101.6024" y2="420.2963">
			<stop  offset="0" style="stop-color:#E3B018"/>
			<stop  offset="0.3716" style="stop-color:#DE9014"/>
			<stop  offset="0.5085" style="stop-color:#DC8813"/>
			<stop  offset="0.7033" style="stop-color:#DB8213"/>
			<stop  offset="1" style="stop-color:#C7380C"/>
		</linearGradient>
		<path class="st2" d="M-71.3,460.1c0,0,7.7-25-17-24.7c0,0-18.7,4-34.8-12.7c0,0-5.3-3.7-9.9-2c0,0,15.4,26.5,40.8,26.7
			C-79.5,446.4-71.3,460.1-71.3,460.1z"/>
		<linearGradient id="SVGID_3_" gradientUnits="userSpaceOnUse" x1="-53.4472" y1="428.862" x2="-28.113" y2="428.862">
			<stop  offset="0" style="stop-color:#E3B018"/>
			<stop  offset="0.3716" style="stop-color:#DE9014"/>
			<stop  offset="0.4176" style="stop-color:#DB8514"/>
			<stop  offset="0.5933" style="stop-color:#CF5D13"/>
			<stop  offset="0.7548" style="stop-color:#C64112"/>
			<stop  offset="0.8956" style="stop-color:#C13011"/>
			<stop  offset="1" style="stop-color:#BF2A11"/>
		</linearGradient>
		<path class="st3" d="M-28.1,430.6c0,0-11.4,12.1-21.6,5.3c-10.2-6.8,4-16.1,4-16.1s-13.8,9.1-0.1,15.5
			C-45.8,435.3-38.8,439.1-28.1,430.6z"/>
		<linearGradient id="SVGID_4_" gradientUnits="userSpaceOnUse" x1="-64.3085" y1="439.4916" x2="-2.5824" y2="439.4916">
			<stop  offset="0" style="stop-color:#E3B018"/>
			<stop  offset="0.3716" style="stop-color:#DE9014"/>
		</linearGradient>
		<path class="st4" d="M-2.6,423.6c0,0-3.7-1.7-8.2,1.5l-11,8.2c0,0-9,7.1-29.3,6.2c0,0-16,0.5-12.8,16.4c0,0,3.3-7.3,22.3-11.1
			c0,0,8.6,0.1,17.5-5C-15.2,436.2-5.9,427.4-2.6,423.6z"/>
		<linearGradient id="SVGID_5_" gradientUnits="userSpaceOnUse" x1="-63.9035" y1="439.537" x2="-2.5824" y2="439.537">
			<stop  offset="2.675015e-002" style="stop-color:#F0E334"/>
			<stop  offset="0.1734" style="stop-color:#E3B018"/>
			<stop  offset="0.3716" style="stop-color:#DE9014"/>
		</linearGradient>
		<path class="st5" d="M-63.9,455.9c0,0,2.2-11.1,22.1-12.3c17.7-1,38.1-20.4,38.1-20.4s0.4,0.2,1.1,0.4c-1.7,1.7-17.6,20-39,21.3
			C-41.6,444.8-57.5,447.4-63.9,455.9z"/>
		<linearGradient id="SVGID_6_" gradientUnits="userSpaceOnUse" x1="-95.8254" y1="447.7665" x2="-70.1783" y2="447.7665">
			<stop  offset="0" style="stop-color:#E3B018"/>
			<stop  offset="1" style="stop-color:#DE9014"/>
		</linearGradient>
		<path class="st6" d="M-71.3,460.1c0,0-3.1-20.5-24.5-24.3l7.5-0.3c0,0,13.3-1,17,9.4C-71.3,444.9-68.7,451.9-71.3,460.1z"/>
		<path class="st7" d="M-3.3,409.5c0,0-13.9-38.8-65.8-19.8c-19.8,7.2-47.3,22.6-63.1,5.4c0,0,5.5,42.2,46.8,21.8
			S-19.6,394.8-3.3,409.5z"/>
		<path class="st8" d="M-3.3,409.5c0,0-23.7-16.9-56.2,9.8s-56.1,9.2-63.7-4.4c0,0,28.9,12.7,59.9-4.8S-14.4,392.6-3.3,409.5z"/>
		
			<linearGradient id="SVGID_7_" gradientUnits="userSpaceOnUse" x1="-59.3762" y1="446.0201" x2="-45.1002" y2="433.7187" gradientTransform="matrix(0.9973 -7.408990e-002 7.408990e-002 0.9973 -40.616 2.3691)">
			<stop  offset="2.675015e-002" style="stop-color:#F0E334"/>
			<stop  offset="1" style="stop-color:#E3B018"/>
		</linearGradient>
		<path class="st9" d="M-57.4,434.3c0.3,0.7,0.5,1.4,0.5,2.2c0,1-0.3,1.8-0.7,2.7c-0.4,1.1-1.1,2.1-1.7,3.2c-0.3,0.5-0.6,1-0.7,1.6
			c0,0.4,0,0.7,0,1.1c0,0.1,0.1,0.2,0.2,0.4c0.3-0.9,0.7-1.7,1.8-2c-0.1,0.1-0.1,0.2-0.1,0.2c-0.4,0.6-0.6,1.3-0.5,2
			c0.1,0.7,0.2,1.4,0.3,2.1c0,0.2,0.1,0.4,0.1,0.6c0.2,1.9-0.5,3.4-2.1,4.5c-1.1,0.7-2.2,1.1-3.5,1.2c-0.3,0.1-0.5,0-0.7-0.2
			c-1.5-1.6-2.3-3.4-2.3-5.6c0-1.5,0.6-2.8,1.5-4c0.7-1,1.6-1.8,2.5-2.5c1-0.8,1.9-1.6,2.9-2.4c0.9-0.8,1.7-1.7,2.2-2.8
			c0.3-0.7,0.4-1.3,0.4-2.1C-57.4,434.4-57.4,434.3-57.4,434.3z"/>
		<linearGradient id="SVGID_8_" gradientUnits="userSpaceOnUse" x1="-83.0114" y1="447.8363" x2="-72.805" y2="447.8363">
			<stop  offset="2.675015e-002" style="stop-color:#F0E334"/>
			<stop  offset="1" style="stop-color:#E3B018"/>
		</linearGradient>
		<path class="st10" d="M-73.6,448.1c-1.9-5.8-9.4-7.1-9.4-7.1c0.4,0.3,0.8,0.6,1.2,0.9c3.7,3,4.3,7.1,4.4,7.3
			c1.7,5.3,4.3,5.5,4.3,5.5S-72.2,452.3-73.6,448.1z"/>
		<linearGradient id="SVGID_9_" gradientUnits="userSpaceOnUse" x1="-121.3802" y1="393.8342" x2="-25.9019" y2="393.8342">
			<stop  offset="0.1176" style="stop-color:#133B4A"/>
			<stop  offset="0.4576" style="stop-color:#255269"/>
			<stop  offset="0.7148" style="stop-color:#22596B"/>
		</linearGradient>
		<path class="st11" d="M-56.9,396.8c0,0-5.3-2-8.6,1.2c-3.3,3.2-14.3,6-14.3,6s-2.8,2-7.5,1.4c0,0-5.8,1.3-9.4,0.2
			c0,0-1.4-0.4-3-0.2c-1.6,0.1-3.7-1.3-3.7-1.3s-5.5-0.5-7.5-1.9c0,0-5,1.2-6.1-0.3c0,0-4.6,0.2-4.4-0.7c0,0,3.8-1,5.1-2.8
			c1.4-1.9,3.2,0.7,3.2,0.7s0.9,0.7,2.8,0.4s6-0.3,6.7,0.1l8.5-0.7c0,0,4.9-0.6,6.8-2.2c1-0.8,2.1-2.7,6.2-1.8c0,0,11.1-5,9.1-7.1
			c0,0-3.3-1-4.7-2.6c0,0-4.1,0.9-7.2-0.2c0,0-1.5-0.1-1.4,2c0.1,1.5-3.8,1.2-4.1,1.7c0,0-0.6,0.6-1.2,0.9c-0.5,0.3-0.8-0.2-0.7-0.8
			c0,0,0,0,0,0c0,0,0.1-1.4,3.5-3.8c2.5-1.8,5-2.8,5-2.8s4.4-1.1,8.2,0.4c0,0,1.3,0.5,3.1,1.7c0.7,0.5,4.1,0.1,5.6,2.7
			c1.4,2.6,3.7,1.9,4.7,0.4c1-1.5,4.2-3.6,6.3-2.8c2.1,0.8,3.5,5.4-1.7,7l3.5,2c0,0,3.8-0.6,7.1,0.5c2.8-1,8.2-1.2,8.2-1.2
			s5.1-0.1,7.1,0.5c0,0,4.4,0.4,5.8,1.7c0,0,0.6,2.5-4.4,1.5c0,0-3.2,0-4.1-1.2c0,0-2.7,0.2-3.3,0.4c-0.6,0.2-4.7,2.5-8.7,0.9
			C-46.5,396.6-54.4,399.3-56.9,396.8z"/>
		<path class="st12" d="M-69.1,399.4c0,0-25.5,13.8-63.1-14.2c0,0-4,19.5,16,29.9S-69.1,399.4-69.1,399.4z"/>
		<path class="st13" d="M-24.2,397c0,0-18.8-17.8-44.9,2.4c-29.6,20.9-50.8,11.9-54,11.1c-3.1-0.9,27.5,30.7,58.1,7
			C-65,417.4-41.9,396.9-24.2,397z"/>
	</g>
	<g>
		<path class="st0" d="M3.1,439.9c-0.2,0.2-0.4,0.3-0.6,0.5c-0.7,0.6-1.3,1.2-2,1.8c-0.1,0.1-0.1,0.1-0.1,0.2
			c0.3,1.1,0.5,2.2,0.8,3.3c0,0,0,0,0,0c0,0-0.1,0-0.1-0.1c-1-0.6-1.9-1.1-2.9-1.7c-0.1,0-0.1,0-0.2,0c-1,0.6-1.9,1.1-2.9,1.7
			c0,0-0.1,0-0.1,0.1c0.1-0.3,0.1-0.6,0.2-0.9c0.2-0.8,0.4-1.7,0.6-2.5c0-0.1,0-0.1-0.1-0.2c-0.8-0.7-1.6-1.4-2.5-2.1
			c0,0-0.1-0.1-0.1-0.1c0,0,0.1,0,0.1,0c0.5,0,1.1-0.1,1.6-0.1c0.6-0.1,1.2-0.1,1.8-0.2c0,0,0.1,0,0.1-0.1c0.3-0.8,0.7-1.5,1-2.3
			c0.1-0.3,0.2-0.6,0.4-0.9c0,0.1,0,0.1,0.1,0.1c0.4,1,0.9,2,1.3,3.1c0,0.1,0.1,0.1,0.1,0.1c0.8,0.1,1.7,0.1,2.5,0.2
			c0.3,0,0.5,0,0.8,0.1C3,439.9,3.1,439.9,3.1,439.9z"/>
		<path class="st0" d="M174.7,439.9c-0.2,0.2-0.4,0.3-0.6,0.5c-0.7,0.6-1.3,1.2-2,1.8c-0.1,0.1-0.1,0.1-0.1,0.2
			c0.3,1.1,0.5,2.2,0.8,3.3c0,0,0,0,0,0c0,0-0.1,0-0.1-0.1c-1-0.6-1.9-1.1-2.9-1.7c-0.1,0-0.1,0-0.2,0c-1,0.6-1.9,1.1-2.9,1.7
			c0,0-0.1,0-0.1,0.1c0.1-0.3,0.1-0.6,0.2-0.9c0.2-0.8,0.4-1.7,0.6-2.5c0-0.1,0-0.1-0.1-0.2c-0.8-0.7-1.6-1.4-2.5-2.1
			c0,0-0.1-0.1-0.1-0.1c0,0,0.1,0,0.1,0c0.5,0,1.1-0.1,1.6-0.1c0.6-0.1,1.2-0.1,1.8-0.2c0,0,0.1,0,0.1-0.1c0.3-0.8,0.7-1.5,1-2.3
			c0.1-0.3,0.2-0.6,0.4-0.9c0,0.1,0,0.1,0.1,0.1c0.4,1,0.9,2,1.3,3.1c0,0.1,0.1,0.1,0.1,0.1c0.8,0.1,1.7,0.1,2.5,0.2
			c0.3,0,0.5,0,0.8,0.1C174.6,439.9,174.7,439.9,174.7,439.9z"/>
	</g>
</g>
</svg>
